<svg id="my-svg" width="100%" xmlns="http://www.w3.org/2000/svg" xmlns:xlink="http://www.w3.org/1999/xlink" class="flowchart" style="max-width: 4102.41px; background-color: white;" viewBox="0 0 4102.40625 652" role="graphics-document document" aria-roledescription="flowchart-v2"><style>#my-svg{font-family:"trebuchet ms",verdana,arial,sans-serif;font-size:16px;fill:#333;}@keyframes edge-animation-frame{from{stroke-dashoffset:0;}}@keyframes dash{to{stroke-dashoffset:0;}}#my-svg .edge-animation-slow{stroke-dasharray:9,5!important;stroke-dashoffset:900;animation:dash 50s linear infinite;stroke-linecap:round;}#my-svg .edge-animation-fast{stroke-dasharray:9,5!important;stroke-dashoffset:900;animation:dash 20s linear infinite;stroke-linecap:round;}#my-svg .error-icon{fill:#552222;}#my-svg .error-text{fill:#552222;stroke:#552222;}#my-svg .edge-thickness-normal{stroke-width:1px;}#my-svg .edge-thickness-thick{stroke-width:3.5px;}#my-svg .edge-pattern-solid{stroke-dasharray:0;}#my-svg .edge-thickness-invisible{stroke-width:0;fill:none;}#my-svg .edge-pattern-dashed{stroke-dasharray:3;}#my-svg .edge-pattern-dotted{stroke-dasharray:2;}#my-svg .marker{fill:#333333;stroke:#333333;}#my-svg .marker.cross{stroke:#333333;}#my-svg svg{font-family:"trebuchet ms",verdana,arial,sans-serif;font-size:16px;}#my-svg p{margin:0;}#my-svg .label{font-family:"trebuchet ms",verdana,arial,sans-serif;color:#333;}#my-svg .cluster-label text{fill:#333;}#my-svg .cluster-label span{color:#333;}#my-svg .cluster-label span p{background-color:transparent;}#my-svg .label text,#my-svg span{fill:#333;color:#333;}#my-svg .node rect,#my-svg .node circle,#my-svg .node ellipse,#my-svg .node polygon,#my-svg .node path{fill:#ECECFF;stroke:#9370DB;stroke-width:1px;}#my-svg .rough-node .label text,#my-svg .node .label text,#my-svg .image-shape .label,#my-svg .icon-shape .label{text-anchor:middle;}#my-svg .node .katex path{fill:#000;stroke:#000;stroke-width:1px;}#my-svg .rough-node .label,#my-svg .node .label,#my-svg .image-shape .label,#my-svg .icon-shape .label{text-align:center;}#my-svg .node.clickable{cursor:pointer;}#my-svg .root .anchor path{fill:#333333!important;stroke-width:0;stroke:#333333;}#my-svg .arrowheadPath{fill:#333333;}#my-svg .edgePath .path{stroke:#333333;stroke-width:1px;}#my-svg .flowchart-link{stroke:#333333;fill:none;}#my-svg .edgeLabel{background-color:rgba(232,232,232, 0.8);text-align:center;}#my-svg .edgeLabel p{background-color:rgba(232,232,232, 0.8);}#my-svg .edgeLabel rect{opacity:0.5;background-color:rgba(232,232,232, 0.8);fill:rgba(232,232,232, 0.8);}#my-svg .labelBkg{background-color:rgba(232, 232, 232, 0.5);}#my-svg .cluster rect{fill:#ffffde;stroke:#aaaa33;stroke-width:1px;}#my-svg .cluster text{fill:#333;}#my-svg .cluster span{color:#333;}#my-svg div.mermaidTooltip{position:absolute;text-align:center;max-width:200px;padding:2px;font-family:"trebuchet ms",verdana,arial,sans-serif;font-size:12px;background:hsl(80, 100%, 96.2745098039%);border:1px solid #aaaa33;border-radius:2px;pointer-events:none;z-index:100;}#my-svg .flowchartTitleText{text-anchor:middle;font-size:18px;fill:#333;}#my-svg rect.text{fill:none;stroke-width:0;}#my-svg .icon-shape,#my-svg .image-shape{background-color:rgba(232,232,232, 0.8);text-align:center;}#my-svg .icon-shape p,#my-svg .image-shape p{background-color:rgba(232,232,232, 0.8);padding:2px;}#my-svg .icon-shape .label rect,#my-svg .image-shape .label rect{opacity:0.5;background-color:rgba(232,232,232, 0.8);fill:rgba(232,232,232, 0.8);}#my-svg .label-icon{display:inline-block;height:1em;overflow:visible;vertical-align:-0.125em;}#my-svg .node .label-icon path{fill:currentColor;stroke:revert;stroke-width:revert;}#my-svg .node .neo-node{stroke:#9370DB;}#my-svg [data-look="neo"].node rect,#my-svg [data-look="neo"].cluster rect,#my-svg [data-look="neo"].node polygon{stroke:#9370DB;filter:drop-shadow(1px 2px 2px rgba(185, 185, 185, 1));}#my-svg [data-look="neo"].swimlane.cluster rect{filter:none;}#my-svg [data-look="neo"].node path{stroke:#9370DB;stroke-width:1px;}#my-svg [data-look="neo"].node .outer-path{filter:drop-shadow(1px 2px 2px rgba(185, 185, 185, 1));}#my-svg [data-look="neo"].node .neo-line path{stroke:#9370DB;filter:none;}#my-svg [data-look="neo"].node circle{stroke:#9370DB;filter:drop-shadow(1px 2px 2px rgba(185, 185, 185, 1));}#my-svg [data-look="neo"].node circle .state-start{fill:#000000;}#my-svg [data-look="neo"].icon-shape .icon{fill:#9370DB;filter:drop-shadow(1px 2px 2px rgba(185, 185, 185, 1));}#my-svg [data-look="neo"].icon-shape .icon-neo path{stroke:#9370DB;filter:drop-shadow(1px 2px 2px rgba(185, 185, 185, 1));}#my-svg :root{--mermaid-font-family:"trebuchet ms",verdana,arial,sans-serif;}</style><g><marker id="my-svg_flowchart-v2-pointEnd" class="marker flowchart-v2" viewBox="0 0 10 10" refX="5" refY="5" markerUnits="userSpaceOnUse" markerWidth="8" markerHeight="8" orient="auto"><path d="M 0 0 L 10 5 L 0 10 z" class="arrowMarkerPath" style="stroke-width: 1; stroke-dasharray: 1, 0;"/></marker><marker id="my-svg_flowchart-v2-pointStart" class="marker flowchart-v2" viewBox="0 0 10 10" refX="4.5" refY="5" markerUnits="userSpaceOnUse" markerWidth="8" markerHeight="8" orient="auto"><path d="M 0 5 L 10 10 L 10 0 z" class="arrowMarkerPath" style="stroke-width: 1; stroke-dasharray: 1, 0;"/></marker><marker id="my-svg_flowchart-v2-pointEnd-margin" class="marker flowchart-v2" viewBox="0 0 11.5 14" refX="11.5" refY="7" markerUnits="userSpaceOnUse" markerWidth="10.5" markerHeight="14" orient="auto"><path d="M 0 0 L 11.5 7 L 0 14 z" class="arrowMarkerPath" style="stroke-width: 0; stroke-dasharray: 1, 0;"/></marker><marker id="my-svg_flowchart-v2-pointStart-margin" class="marker flowchart-v2" viewBox="0 0 11.5 14" refX="1" refY="7" markerUnits="userSpaceOnUse" markerWidth="11.5" markerHeight="14" orient="auto"><polygon points="0,7 11.5,14 11.5,0" class="arrowMarkerPath" style="stroke-width: 0; stroke-dasharray: 1, 0;"/></marker><marker id="my-svg_flowchart-v2-circleEnd" class="marker flowchart-v2" viewBox="0 0 10 10" refX="11" refY="5" markerUnits="userSpaceOnUse" markerWidth="11" markerHeight="11" orient="auto"><circle cx="5" cy="5" r="5" class="arrowMarkerPath" style="stroke-width: 1; stroke-dasharray: 1, 0;"/></marker><marker id="my-svg_flowchart-v2-circleStart" class="marker flowchart-v2" viewBox="0 0 10 10" refX="-1" refY="5" markerUnits="userSpaceOnUse" markerWidth="11" markerHeight="11" orient="auto"><circle cx="5" cy="5" r="5" class="arrowMarkerPath" style="stroke-width: 1; stroke-dasharray: 1, 0;"/></marker><marker id="my-svg_flowchart-v2-circleEnd-margin" class="marker flowchart-v2" viewBox="0 0 10 10" refY="5" refX="12.25" markerUnits="userSpaceOnUse" markerWidth="14" markerHeight="14" orient="auto"><circle cx="5" cy="5" r="5" class="arrowMarkerPath" style="stroke-width: 0; stroke-dasharray: 1, 0;"/></marker><marker id="my-svg_flowchart-v2-circleStart-margin" class="marker flowchart-v2" viewBox="0 0 10 10" refX="-2" refY="5" markerUnits="userSpaceOnUse" markerWidth="14" markerHeight="14" orient="auto"><circle cx="5" cy="5" r="5" class="arrowMarkerPath" style="stroke-width: 0; stroke-dasharray: 1, 0;"/></marker><marker id="my-svg_flowchart-v2-crossEnd" class="marker cross flowchart-v2" viewBox="0 0 11 11" refX="12" refY="5.2" markerUnits="userSpaceOnUse" markerWidth="11" markerHeight="11" orient="auto"><path d="M 1,1 l 9,9 M 10,1 l -9,9" class="arrowMarkerPath" style="stroke-width: 2; stroke-dasharray: 1, 0;"/></marker><marker id="my-svg_flowchart-v2-crossStart" class="marker cross flowchart-v2" viewBox="0 0 11 11" refX="-1" refY="5.2" markerUnits="userSpaceOnUse" markerWidth="11" markerHeight="11" orient="auto"><path d="M 1,1 l 9,9 M 10,1 l -9,9" class="arrowMarkerPath" style="stroke-width: 2; stroke-dasharray: 1, 0;"/></marker><marker id="my-svg_flowchart-v2-crossEnd-margin" class="marker cross flowchart-v2" viewBox="0 0 15 15" refX="17.7" refY="7.5" markerUnits="userSpaceOnUse" markerWidth="12" markerHeight="12" orient="auto"><path d="M 1,1 L 14,14 M 1,14 L 14,1" class="arrowMarkerPath" style="stroke-width: 2.5;"/></marker><marker id="my-svg_flowchart-v2-crossStart-margin" class="marker cross flowchart-v2" viewBox="0 0 15 15" refX="-3.5" refY="7.5" markerUnits="userSpaceOnUse" markerWidth="12" markerHeight="12" orient="auto"><path d="M 1,1 L 14,14 M 1,14 L 14,1" class="arrowMarkerPath" style="stroke-width: 2.5; stroke-dasharray: 1, 0;"/></marker><g class="root"><g class="clusters"><g class="cluster" id="my-svg-OS" data-look="classic"><rect style="" x="8" y="8" width="4086.40625" height="301"/><g class="cluster-label" transform="translate(1848.7890625, 8)"><foreignObject width="404.828125" height="24"><div xmlns="http://www.w3.org/1999/xhtml" style="display: table-cell; white-space: nowrap; line-height: 1.5;"><span class="nodeLabel"><p>ArchiveOS - Control Tower / Approval / Evidence / Audit</p></span></div></foreignObject></g></g><g class="cluster" id="my-svg-LD" data-look="classic"><rect style="" x="2401.09375" y="339" width="1441.375" height="220"/><g class="cluster-label" transform="translate(2877.421875, 339)"><foreignObject width="488.71875" height="24"><div xmlns="http://www.w3.org/1999/xhtml" style="display: table-cell; white-space: nowrap; line-height: 1.5;"><span class="nodeLabel"><p>Archive-Ledger - Transaction / Ledger / Settlement / Reconciliation</p></span></div></foreignObject></g></g><g class="cluster" id="my-svg-LG" data-look="classic"><rect style="" x="1326.296875" y="334" width="824.796875" height="124"/><g class="cluster-label" transform="translate(1565.0390625, 334)"><foreignObject width="347.3125" height="24"><div xmlns="http://www.w3.org/1999/xhtml" style="display: table-cell; white-space: nowrap; line-height: 1.5;"><span class="nodeLabel"><p>Archive-Logistics - Route / ETA / Cost Calculator</p></span></div></foreignObject></g></g><g class="cluster" id="my-svg-NX" data-look="classic"><rect style="" x="543" y="478" width="1050" height="166"/><g class="cluster-label" transform="translate(909.5546875, 478)"><foreignObject width="316.890625" height="24"><div xmlns="http://www.w3.org/1999/xhtml" style="display: table-cell; white-space: nowrap; line-height: 1.5;"><span class="nodeLabel"><p>Archive-Nexus - Manufacturing Event Source</p></span></div></foreignObject></g></g></g><g class="edgePaths"><path d="M794.625,582L812.172,582C829.719,582,864.813,582,899.249,579.07C933.686,576.14,967.466,570.28,984.356,567.35L1001.246,564.42" id="my-svg-L_NXR_NXO_0" class="edge-thickness-normal edge-pattern-solid edge-thickness-normal edge-pattern-solid flowchart-link" style=";" data-edge="true" data-et="edge" data-id="L_NXR_NXO_0" data-points="W3sieCI6Nzk0LjYyNSwieSI6NTgyfSx7IngiOjg5OS45MDYyNSwieSI6NTgyfSx7IngiOjEwMDUuMTg3NSwieSI6NTYzLjczNjc0NDAyODQ2MDF9XQ==" data-look="classic" marker-end="url(#my-svg_flowchart-v2-pointEnd)"/><path d="M1163.563,565.783L1177.124,568.486C1190.685,571.189,1217.807,576.594,1244.93,579.297C1272.052,582,1299.174,582,1318.779,582C1338.383,582,1350.469,582,1356.512,582L1362.555,582" id="my-svg-L_NXO_NXRTRY_0" class="edge-thickness-normal edge-pattern-solid edge-thickness-normal edge-pattern-solid flowchart-link" style=";" data-edge="true" data-et="edge" data-id="L_NXO_NXRTRY_0" data-points="W3sieCI6MTE2My41NjI1LCJ5Ijo1NjUuNzgyNzg0MjkyNzM1Mn0seyJ4IjoxMjQ0LjkyOTY4NzUsInkiOjU4Mn0seyJ4IjoxMzI2LjI5Njg3NSwieSI6NTgyfSx7IngiOjEzNjYuNTU0Njg3NSwieSI6NTgyfV0=" data-look="classic" marker-end="url(#my-svg_flowchart-v2-pointEnd)"/><path d="M1568,396L1572.167,396C1576.333,396,1584.667,396,1595.785,396C1606.904,396,1620.807,396,1634.044,396C1647.281,396,1659.852,396,1666.137,396L1672.422,396" id="my-svg-L_LGI_LGR_0" class="edge-thickness-normal edge-pattern-solid edge-thickness-normal edge-pattern-solid flowchart-link" style=";" data-edge="true" data-et="edge" data-id="L_LGI_LGR_0" data-points="W3sieCI6MTU2OCwieSI6Mzk2fSx7IngiOjE1OTMsInkiOjM5Nn0seyJ4IjoxNjM0LjcxMDkzNzUsInkiOjM5Nn0seyJ4IjoxNjc2LjQyMTg3NSwieSI6Mzk2fV0=" data-look="classic" marker-end="url(#my-svg_flowchart-v2-pointEnd)"/><path d="M1898.828,396L1902.995,396C1907.161,396,1915.495,396,1923.161,396C1930.828,396,1937.828,396,1941.328,396L1944.828,396" id="my-svg-L_LGR_LGO_0" class="edge-thickness-normal edge-pattern-solid edge-thickness-normal edge-pattern-solid flowchart-link" style=";" data-edge="true" data-et="edge" data-id="L_LGR_LGO_0" data-points="W3sieCI6MTg5OC44MjgxMjUsInkiOjM5Nn0seyJ4IjoxOTIzLjgyODEyNSwieSI6Mzk2fSx7IngiOjE5NDguODI4MTI1LCJ5IjozOTZ9XQ==" data-look="classic" marker-end="url(#my-svg_flowchart-v2-pointEnd)"/><path d="M2592.516,406L2596.682,406C2600.849,406,2609.182,406,2616.849,406C2624.516,406,2631.516,406,2635.016,406L2638.516,406" id="my-svg-L_LDI_LDT_0" class="edge-thickness-normal edge-pattern-solid edge-thickness-normal edge-pattern-solid flowchart-link" style=";" data-edge="true" data-et="edge" data-id="L_LDI_LDT_0" data-points="W3sieCI6MjU5Mi41MTU2MjUsInkiOjQwNn0seyJ4IjoyNjE3LjUxNTYyNSwieSI6NDA2fSx7IngiOjI2NDIuNTE1NjI1LCJ5Ijo0MDZ9XQ==" data-look="classic" marker-end="url(#my-svg_flowchart-v2-pointEnd)"/><path d="M2818.588,433L2843.648,443.667C2868.707,454.333,2918.826,475.667,2962.17,486.333C3005.513,497,3042.081,497,3060.365,497L3078.648,497" id="my-svg-L_LDT_LDL_0" class="edge-thickness-normal edge-pattern-solid edge-thickness-normal edge-pattern-solid flowchart-link" style=";" data-edge="true" data-et="edge" data-id="L_LDT_LDL_0" data-points="W3sieCI6MjgxOC41ODgxNjk2NDI4NTczLCJ5Ijo0MzN9LHsieCI6Mjk2OC45NDUzMTI1LCJ5Ijo0OTd9LHsieCI6MzA4Mi42NDg0Mzc1LCJ5Ijo0OTd9XQ==" data-look="classic" marker-end="url(#my-svg_flowchart-v2-pointEnd)"/><path d="M3311.57,497L3333.108,497C3354.646,497,3397.721,497,3438.143,497C3478.565,497,3516.333,497,3535.217,497L3554.102,497" id="my-svg-L_LDL_LDS_0" class="edge-thickness-normal edge-pattern-solid edge-thickness-normal edge-pattern-solid flowchart-link" style=";" data-edge="true" data-et="edge" data-id="L_LDL_LDS_0" data-points="W3sieCI6MzMxMS41NzAzMTI1LCJ5Ijo0OTd9LHsieCI6MzQ0MC43OTY4NzUsInkiOjQ5N30seyJ4IjozNTU4LjEwMTU2MjUsInkiOjQ5N31d" data-look="classic" marker-end="url(#my-svg_flowchart-v2-pointEnd)"/><path d="M3324.125,231L3343.57,231C3363.016,231,3401.906,231,3440.13,231C3478.354,231,3515.911,231,3534.69,231L3553.469,231" id="my-svg-L_OSA_OSE_0" class="edge-thickness-normal edge-pattern-solid edge-thickness-normal edge-pattern-solid flowchart-link" style=";" data-edge="true" data-et="edge" data-id="L_OSA_OSE_0" data-points="W3sieCI6MzMyNC4xMjUsInkiOjIzMX0seyJ4IjozNDQwLjc5Njg3NSwieSI6MjMxfSx7IngiOjM1NTcuNDY4NzUsInkiOjIzMX1d" data-look="classic" marker-end="url(#my-svg_flowchart-v2-pointEnd)"/><path d="M3817.469,231L3821.635,231C3825.802,231,3834.135,231,3842.469,231C3850.802,231,3859.135,231,3866.814,230.319C3874.493,229.638,3881.518,228.276,3885.03,227.595L3888.542,226.914" id="my-svg-L_OSE_OSC_0" class="edge-thickness-normal edge-pattern-solid edge-thickness-normal edge-pattern-solid flowchart-link" style=";" data-edge="true" data-et="edge" data-id="L_OSE_OSC_0" data-points="W3sieCI6MzgxNy40Njg3NSwieSI6MjMxfSx7IngiOjM4NDIuNDY4NzUsInkiOjIzMX0seyJ4IjozODY3LjQ2ODc1LCJ5IjoyMzF9LHsieCI6Mzg5Mi40Njg3NSwieSI6MjI2LjE1Mjg1MDQ1NDQyMDI3fV0=" data-look="classic" marker-end="url(#my-svg_flowchart-v2-pointEnd)"/><path d="M261.008,70L287.173,70C313.339,70,365.669,70,412.668,70C459.667,70,501.333,70,528.778,71.004C556.223,72.008,569.447,74.015,576.059,75.019L582.67,76.023" id="my-svg-L_OSR_OSH_0" class="edge-thickness-normal edge-pattern-solid edge-thickness-normal edge-pattern-solid flowchart-link" style=";" data-edge="true" data-et="edge" data-id="L_OSR_OSH_0" data-points="W3sieCI6MjYxLjAwNzgxMjUsInkiOjcwfSx7IngiOjQxOCwieSI6NzB9LHsieCI6NTQzLCJ5Ijo3MH0seyJ4Ijo1ODYuNjI1LCJ5Ijo3Ni42MjM1ODc4ODk3NDI0Mn1d" data-look="classic" marker-end="url(#my-svg_flowchart-v2-pointEnd)"/><path d="M1163.563,550L1177.124,550C1190.685,550,1217.807,550,1244.93,550C1272.052,550,1299.174,550,1330.628,529.337C1362.081,508.675,1397.866,467.349,1415.758,446.687L1433.65,426.024" id="my-svg-L_NXO_LGI_0" class="edge-thickness-normal edge-pattern-solid edge-thickness-normal edge-pattern-solid flowchart-link" style=";" data-edge="true" data-et="edge" data-id="L_NXO_LGI_0" data-points="W3sieCI6MTE2My41NjI1LCJ5Ijo1NTB9LHsieCI6MTI0NC45Mjk2ODc1LCJ5Ijo1NTB9LHsieCI6MTMyNi4yOTY4NzUsInkiOjU1MH0seyJ4IjoxNDM2LjI2ODYxODEwMDY0OTMsInkiOjQyM31d" data-look="classic" marker-end="url(#my-svg_flowchart-v2-pointEnd)"/><path d="M1163.563,534.217L1177.124,531.514C1190.685,528.811,1217.807,523.406,1244.93,520.703C1272.052,518,1299.174,518,1334.961,518C1370.747,518,1415.198,518,1459.648,518C1504.099,518,1548.549,518,1577.727,518C1606.904,518,1620.807,518,1653.245,518C1685.682,518,1736.654,518,1784.84,518C1833.026,518,1878.427,518,1920.066,518C1961.706,518,1999.583,518,2037.461,518C2075.339,518,2113.216,518,2152.988,518C2192.76,518,2234.427,518,2276.094,518C2317.76,518,2359.427,518,2393.485,504.313C2427.542,490.626,2453.99,463.251,2467.215,449.564L2480.439,435.877" id="my-svg-L_NXO_LDI_0" class="edge-thickness-normal edge-pattern-solid edge-thickness-normal edge-pattern-solid flowchart-link" style=";" data-edge="true" data-et="edge" data-id="L_NXO_LDI_0" data-points="W3sieCI6MTE2My41NjI1LCJ5Ijo1MzQuMjE3MjE1NzA3MjY0OH0seyJ4IjoxMjQ0LjkyOTY4NzUsInkiOjUxOH0seyJ4IjoxMzI2LjI5Njg3NSwieSI6NTE4fSx7IngiOjE0NTkuNjQ4NDM3NSwieSI6NTE4fSx7IngiOjE1OTMsInkiOjUxOH0seyJ4IjoxNjM0LjcxMDkzNzUsInkiOjUxOH0seyJ4IjoxNzg3LjYyNSwieSI6NTE4fSx7IngiOjE5MjMuODI4MTI1LCJ5Ijo1MTh9LHsieCI6MjAzNy40NjA5Mzc1LCJ5Ijo1MTh9LHsieCI6MjE1MS4wOTM3NSwieSI6NTE4fSx7IngiOjIyNzYuMDkzNzUsInkiOjUxOH0seyJ4IjoyNDAxLjA5Mzc1LCJ5Ijo1MTh9LHsieCI6MjQ4My4yMTgxMjIyMDk4MjE2LCJ5Ijo0MzN9XQ==" data-look="classic" marker-end="url(#my-svg_flowchart-v2-pointEnd)"/><path d="M2126.094,396L2130.26,396C2134.427,396,2142.76,396,2167.76,396C2192.76,396,2234.427,396,2276.094,396C2317.76,396,2359.427,396,2383.763,396.324C2408.099,396.647,2415.105,397.295,2418.608,397.619L2422.111,397.942" id="my-svg-L_LGO_LDI_0" class="edge-thickness-normal edge-pattern-solid edge-thickness-normal edge-pattern-solid flowchart-link" style=";" data-edge="true" data-et="edge" data-id="L_LGO_LDI_0" data-points="W3sieCI6MjEyNi4wOTM3NSwieSI6Mzk2fSx7IngiOjIxNTEuMDkzNzUsInkiOjM5Nn0seyJ4IjoyMjc2LjA5Mzc1LCJ5IjozOTZ9LHsieCI6MjQwMS4wOTM3NSwieSI6Mzk2fSx7IngiOjI0MjYuMDkzNzUsInkiOjM5OC4zMTAzMDI1MDUyMzQzfV0=" data-look="classic" marker-end="url(#my-svg_flowchart-v2-pointEnd)"/><path d="M2867.797,424.441L2884.655,427.201C2901.513,429.96,2935.229,435.48,2984.735,408.192C3034.24,380.903,3099.536,320.806,3132.183,290.757L3164.831,260.709" id="my-svg-L_LDT_OSA_0" class="edge-thickness-normal edge-pattern-solid edge-thickness-normal edge-pattern-solid flowchart-link" style=";" data-edge="true" data-et="edge" data-id="L_LDT_OSA_0" data-points="W3sieCI6Mjg2Ny43OTY4NzUsInkiOjQyNC40NDA3MDg5MzQ3NzA2N30seyJ4IjoyOTY4Ljk0NTMxMjUsInkiOjQ0MX0seyJ4IjozMTY3Ljc3Mzk5NTUzNTcxNCwieSI6MjU4fV0=" data-look="classic" marker-end="url(#my-svg_flowchart-v2-pointEnd)"/><path d="M3929.011,236L3918.754,241.333C3908.497,246.667,3887.983,257.333,3873.559,281.333C3859.135,305.333,3850.802,342.667,3820.802,361.333C3790.802,380,3739.135,380,3672.19,380C3605.245,380,3523.021,380,3441.294,380C3359.568,380,3278.339,380,3199.697,380C3121.055,380,3045,380,2990.776,381.97C2936.553,383.939,2904.16,387.879,2887.964,389.849L2871.768,391.818" id="my-svg-L_OSC_LDT_0" class="edge-thickness-normal edge-pattern-solid edge-thickness-normal edge-pattern-solid flowchart-link" style=";" data-edge="true" data-et="edge" data-id="L_OSC_LDT_0" data-points="W3sieCI6MzkyOS4wMTExMjI4ODEzNTU3LCJ5IjoyMzZ9LHsieCI6Mzg2Ny40Njg3NSwieSI6MjY4fSx7IngiOjM4NDIuNDY4NzUsInkiOjM4MH0seyJ4IjozNjg3LjQ2ODc1LCJ5IjozODB9LHsieCI6MzQ0MC43OTY4NzUsInkiOjM4MH0seyJ4IjozMTk3LjEwOTM3NSwieSI6MzgwfSx7IngiOjI5NjguOTQ1MzEyNSwieSI6MzgwfSx7IngiOjI4NjcuNzk2ODc1LCJ5IjozOTIuMzAxMTg3NjQ4NDU2MDV9XQ==" data-look="classic" marker-end="url(#my-svg_flowchart-v2-pointEnd)"/><path d="M776,105.728L796.651,108.94C817.302,112.152,858.604,118.576,907.781,187.51C956.959,256.444,1014.011,387.887,1042.537,453.609L1071.063,519.331" id="my-svg-L_OSH_NXO_0" class="edge-thickness-normal edge-pattern-dotted edge-thickness-normal edge-pattern-solid flowchart-link" style=";" data-edge="true" data-et="edge" data-id="L_OSH_NXO_0" data-points="W3sieCI6Nzc2LCJ5IjoxMDUuNzI3NjYyNjE2MTU0Mzl9LHsieCI6ODk5LjkwNjI1LCJ5IjoxMjV9LHsieCI6MTA3Mi42NTU4MDg4MjM1Mjk1LCJ5Ijo1MjN9XQ==" data-look="classic" marker-end="url(#my-svg_flowchart-v2-pointEnd)"/><path d="M776,91.866L796.651,92.055C817.302,92.244,858.604,92.622,910,92.811C961.396,93,1022.885,93,1080.389,93C1137.893,93,1191.411,93,1231.732,93C1272.052,93,1299.174,93,1332.712,138.39C1366.249,183.78,1406.202,274.559,1426.178,319.949L1446.154,365.339" id="my-svg-L_OSH_LGI_0" class="edge-thickness-normal edge-pattern-dotted edge-thickness-normal edge-pattern-solid flowchart-link" style=";" data-edge="true" data-et="edge" data-id="L_OSH_LGI_0" data-points="W3sieCI6Nzc2LCJ5Ijo5MS44NjYzMzMwOTUwNjc5fSx7IngiOjg5OS45MDYyNSwieSI6OTN9LHsieCI6MTA4NC4zNzUsInkiOjkzfSx7IngiOjEyNDQuOTI5Njg3NSwieSI6OTN9LHsieCI6MTMyNi4yOTY4NzUsInkiOjkzfSx7IngiOjE0NDcuNzY1NjI1LCJ5IjozNjl9XQ==" data-look="classic" marker-end="url(#my-svg_flowchart-v2-pointEnd)"/><path d="M776,68.909L796.651,64.09C817.302,59.272,858.604,49.636,910,44.818C961.396,40,1022.885,40,1080.389,40C1137.893,40,1191.411,40,1231.732,40C1272.052,40,1299.174,40,1334.961,40C1370.747,40,1415.198,40,1459.648,40C1504.099,40,1548.549,40,1577.727,40C1606.904,40,1620.807,40,1653.245,40C1685.682,40,1736.654,40,1784.84,40C1833.026,40,1878.427,40,1920.066,40C1961.706,40,1999.583,40,2037.461,40C2075.339,40,2113.216,40,2152.988,40C2192.76,40,2234.427,40,2276.094,40C2317.76,40,2359.427,40,2396.776,95.861C2434.125,151.721,2467.156,263.443,2483.672,319.303L2500.188,375.164" id="my-svg-L_OSH_LDI_0" class="edge-thickness-normal edge-pattern-dotted edge-thickness-normal edge-pattern-solid flowchart-link" style=";" data-edge="true" data-et="edge" data-id="L_OSH_LDI_0" data-points="W3sieCI6Nzc2LCJ5Ijo2OC45MDg1MDYwNzU3Njg0fSx7IngiOjg5OS45MDYyNSwieSI6NDB9LHsieCI6MTA4NC4zNzUsInkiOjQwfSx7IngiOjEyNDQuOTI5Njg3NSwieSI6NDB9LHsieCI6MTMyNi4yOTY4NzUsInkiOjQwfSx7IngiOjE0NTkuNjQ4NDM3NSwieSI6NDB9LHsieCI6MTU5MywieSI6NDB9LHsieCI6MTYzNC43MTA5Mzc1LCJ5Ijo0MH0seyJ4IjoxNzg3LjYyNSwieSI6NDB9LHsieCI6MTkyMy44MjgxMjUsInkiOjQwfSx7IngiOjIwMzcuNDYwOTM3NSwieSI6NDB9LHsieCI6MjE1MS4wOTM3NSwieSI6NDB9LHsieCI6MjI3Ni4wOTM3NSwieSI6NDB9LHsieCI6MjQwMS4wOTM3NSwieSI6NDB9LHsieCI6MjUwMS4zMjE5MTM0MjIxMzEzLCJ5IjozNzl9XQ==" data-look="classic" marker-end="url(#my-svg_flowchart-v2-pointEnd)"/><path d="M719.637,423L749.682,444.167C779.727,465.333,839.817,507.667,886.742,528.833C933.667,550,967.427,550,984.307,550L1001.188,550" id="my-svg-L_Safe_NXO_0" class="edge-thickness-normal edge-pattern-dotted edge-thickness-normal edge-pattern-solid flowchart-link" style=";" data-edge="true" data-et="edge" data-id="L_Safe_NXO_0" data-points="W3sieCI6NzE5LjYzNzM3ODI0Njc1MzIsInkiOjQyM30seyJ4Ijo4OTkuOTA2MjUsInkiOjU1MH0seyJ4IjoxMDA1LjE4NzUsInkiOjU1MH1d" data-look="classic" marker-end="url(#my-svg_flowchart-v2-pointEnd)"/><path d="M706.007,369L738.324,333.667C770.64,298.333,835.273,227.667,898.335,192.333C961.396,157,1022.885,157,1080.389,157C1137.893,157,1191.411,157,1231.732,157C1272.052,157,1299.174,157,1334.961,157C1370.747,157,1415.198,157,1459.648,157C1504.099,157,1548.549,157,1577.727,157C1606.904,157,1620.807,157,1653.245,157C1685.682,157,1736.654,157,1784.84,157C1833.026,157,1878.427,157,1920.066,157C1961.706,157,1999.583,157,2037.461,157C2075.339,157,2113.216,157,2152.988,157C2192.76,157,2234.427,157,2276.094,157C2317.76,157,2359.427,157,2398.296,157C2437.164,157,2473.234,157,2509.305,157C2545.375,157,2581.445,157,2622.421,157C2663.396,157,2709.276,157,2767.848,157C2826.419,157,2897.682,157,2971.341,157C3045,157,3121.055,157,3199.697,157C3278.339,157,3359.568,157,3441.294,157C3523.021,157,3605.245,157,3672.19,157C3739.135,157,3790.802,157,3820.802,157C3850.802,157,3859.135,157,3871.788,160.889C3884.441,164.778,3901.413,172.556,3909.899,176.445L3918.385,180.334" id="my-svg-L_Safe_OSC_0" class="edge-thickness-normal edge-pattern-dotted edge-thickness-normal edge-pattern-solid flowchart-link" style=";" data-edge="true" data-et="edge" data-id="L_Safe_OSC_0" data-points="W3sieCI6NzA2LjAwNzE5MTQyMjU5NDEsInkiOjM2OX0seyJ4Ijo4OTkuOTA2MjUsInkiOjE1N30seyJ4IjoxMDg0LjM3NSwieSI6MTU3fSx7IngiOjEyNDQuOTI5Njg3NSwieSI6MTU3fSx7IngiOjEzMjYuMjk2ODc1LCJ5IjoxNTd9LHsieCI6MTQ1OS42NDg0Mzc1LCJ5IjoxNTd9LHsieCI6MTU5MywieSI6MTU3fSx7IngiOjE2MzQuNzEwOTM3NSwieSI6MTU3fSx7IngiOjE3ODcuNjI1LCJ5IjoxNTd9LHsieCI6MTkyMy44MjgxMjUsInkiOjE1N30seyJ4IjoyMDM3LjQ2MDkzNzUsInkiOjE1N30seyJ4IjoyMTUxLjA5Mzc1LCJ5IjoxNTd9LHsieCI6MjI3Ni4wOTM3NSwieSI6MTU3fSx7IngiOjI0MDEuMDkzNzUsInkiOjE1N30seyJ4IjoyNTA5LjMwNDY4NzUsInkiOjE1N30seyJ4IjoyNjE3LjUxNTYyNSwieSI6MTU3fSx7IngiOjI3NTUuMTU2MjUsInkiOjE1N30seyJ4IjoyOTY4Ljk0NTMxMjUsInkiOjE1N30seyJ4IjozMTk3LjEwOTM3NSwieSI6MTU3fSx7IngiOjM0NDAuNzk2ODc1LCJ5IjoxNTd9LHsieCI6MzY4Ny40Njg3NSwieSI6MTU3fSx7IngiOjM4NDIuNDY4NzUsInkiOjE1N30seyJ4IjozODY3LjQ2ODc1LCJ5IjoxNTd9LHsieCI6MzkyMi4wMjEwMzM2NTM4NDYsInkiOjE4Mn1d" data-look="classic" marker-end="url(#my-svg_flowchart-v2-pointEnd)"/><path d="M211.277,344L245.731,316.167C280.184,288.333,349.092,232.667,404.379,204.833C459.667,177,501.333,177,537.415,167.519C573.497,158.037,603.995,139.075,619.243,129.593L634.492,120.112" id="my-svg-L_Iso_OSH_0" class="edge-thickness-normal edge-pattern-dotted edge-thickness-normal edge-pattern-solid flowchart-link" style=";" data-edge="true" data-et="edge" data-id="L_Iso_OSH_0" data-points="W3sieCI6MjExLjI3NjY5OTAyOTEyNjIsInkiOjM0NH0seyJ4Ijo0MTgsInkiOjE3N30seyJ4Ijo1NDMsInkiOjE3N30seyJ4Ijo2MzcuODg4ODA4MTM5NTM0OCwieSI6MTE4fV0=" data-look="classic" marker-end="url(#my-svg_flowchart-v2-pointEnd)"/></g><g class="edgeLabels"><g class="edgeLabel"><g class="label" data-id="L_NXR_NXO_0" transform="translate(0, 0)"><foreignObject width="0" height="0"><div xmlns="http://www.w3.org/1999/xhtml" class="labelBkg" style="display: table-cell; white-space: nowrap; line-height: 1.5; max-width: 200px; text-align: center;"><span class="edgeLabel"></span></div></foreignObject></g></g><g class="edgeLabel"><g class="label" data-id="L_NXO_NXRTRY_0" transform="translate(0, 0)"><foreignObject width="0" height="0"><div xmlns="http://www.w3.org/1999/xhtml" class="labelBkg" style="display: table-cell; white-space: nowrap; line-height: 1.5; max-width: 200px; text-align: center;"><span class="edgeLabel"></span></div></foreignObject></g></g><g class="edgeLabel"><g class="label" data-id="L_LGI_LGR_0" transform="translate(0, 0)"><foreignObject width="0" height="0"><div xmlns="http://www.w3.org/1999/xhtml" class="labelBkg" style="display: table-cell; white-space: nowrap; line-height: 1.5; max-width: 200px; text-align: center;"><span class="edgeLabel"></span></div></foreignObject></g></g><g class="edgeLabel"><g class="label" data-id="L_LGR_LGO_0" transform="translate(0, 0)"><foreignObject width="0" height="0"><div xmlns="http://www.w3.org/1999/xhtml" class="labelBkg" style="display: table-cell; white-space: nowrap; line-height: 1.5; max-width: 200px; text-align: center;"><span class="edgeLabel"></span></div></foreignObject></g></g><g class="edgeLabel"><g class="label" data-id="L_LDI_LDT_0" transform="translate(0, 0)"><foreignObject width="0" height="0"><div xmlns="http://www.w3.org/1999/xhtml" class="labelBkg" style="display: table-cell; white-space: nowrap; line-height: 1.5; max-width: 200px; text-align: center;"><span class="edgeLabel"></span></div></foreignObject></g></g><g class="edgeLabel"><g class="label" data-id="L_LDT_LDL_0" transform="translate(0, 0)"><foreignObject width="0" height="0"><div xmlns="http://www.w3.org/1999/xhtml" class="labelBkg" style="display: table-cell; white-space: nowrap; line-height: 1.5; max-width: 200px; text-align: center;"><span class="edgeLabel"></span></div></foreignObject></g></g><g class="edgeLabel"><g class="label" data-id="L_LDL_LDS_0" transform="translate(0, 0)"><foreignObject width="0" height="0"><div xmlns="http://www.w3.org/1999/xhtml" class="labelBkg" style="display: table-cell; white-space: nowrap; line-height: 1.5; max-width: 200px; text-align: center;"><span class="edgeLabel"></span></div></foreignObject></g></g><g class="edgeLabel"><g class="label" data-id="L_OSA_OSE_0" transform="translate(0, 0)"><foreignObject width="0" height="0"><div xmlns="http://www.w3.org/1999/xhtml" class="labelBkg" style="display: table-cell; white-space: nowrap; line-height: 1.5; max-width: 200px; text-align: center;"><span class="edgeLabel"></span></div></foreignObject></g></g><g class="edgeLabel"><g class="label" data-id="L_OSE_OSC_0" transform="translate(0, 0)"><foreignObject width="0" height="0"><div xmlns="http://www.w3.org/1999/xhtml" class="labelBkg" style="display: table-cell; white-space: nowrap; line-height: 1.5; max-width: 200px; text-align: center;"><span class="edgeLabel"></span></div></foreignObject></g></g><g class="edgeLabel"><g class="label" data-id="L_OSR_OSH_0" transform="translate(0, 0)"><foreignObject width="0" height="0"><div xmlns="http://www.w3.org/1999/xhtml" class="labelBkg" style="display: table-cell; white-space: nowrap; line-height: 1.5; max-width: 200px; text-align: center;"><span class="edgeLabel"></span></div></foreignObject></g></g><g class="edgeLabel" transform="translate(1244.9296875, 550)"><g class="label" data-id="L_NXO_LGI_0" transform="translate(-56.3671875, -12)"><foreignObject width="112.734375" height="24"><div xmlns="http://www.w3.org/1999/xhtml" class="labelBkg" style="display: table-cell; white-space: nowrap; line-height: 1.5; max-width: 200px; text-align: center;"><span class="edgeLabel"><p>Logistics events</p></span></div></foreignObject></g></g><g class="edgeLabel" transform="translate(1787.625, 518)"><g class="label" data-id="L_NXO_LDI_0" transform="translate(-89.5546875, -12)"><foreignObject width="179.109375" height="24"><div xmlns="http://www.w3.org/1999/xhtml" class="labelBkg" style="display: table-cell; white-space: nowrap; line-height: 1.5; max-width: 200px; text-align: center;"><span class="edgeLabel"><p>Cost / settlement events</p></span></div></foreignObject></g></g><g class="edgeLabel" transform="translate(2276.09375, 396)"><g class="label" data-id="L_LGO_LDI_0" transform="translate(-100, -24)"><foreignObject width="200" height="48"><div xmlns="http://www.w3.org/1999/xhtml" class="labelBkg" style="display: table; white-space: break-spaces; line-height: 1.5; max-width: 200px; text-align: center; width: 200px;"><span class="edgeLabel"><p>Finalized logistics cost event</p></span></div></foreignObject></g></g><g class="edgeLabel" transform="translate(3030.65238, 384.20541)"><g class="label" data-id="L_LDT_OSA_0" transform="translate(-76.1484375, -12)"><foreignObject width="152.296875" height="24"><div xmlns="http://www.w3.org/1999/xhtml" class="labelBkg" style="display: table-cell; white-space: nowrap; line-height: 1.5; max-width: 200px; text-align: center;"><span class="edgeLabel"><p>APPROVAL_REQUIRED</p></span></div></foreignObject></g></g><g class="edgeLabel" transform="translate(3440.796875, 380)"><g class="label" data-id="L_OSC_LDT_0" transform="translate(-91.671875, -12)"><foreignObject width="183.34375" height="24"><div xmlns="http://www.w3.org/1999/xhtml" class="labelBkg" style="display: table-cell; white-space: nowrap; line-height: 1.5; max-width: 200px; text-align: center;"><span class="edgeLabel"><p>approve / reject callback</p></span></div></foreignObject></g></g><g class="edgeLabel" transform="translate(961.31741, 266.48598)"><g class="label" data-id="L_OSH_NXO_0" transform="translate(-16.7109375, -12)"><foreignObject width="33.421875" height="24"><div xmlns="http://www.w3.org/1999/xhtml" class="labelBkg" style="display: table-cell; white-space: nowrap; line-height: 1.5; max-width: 200px; text-align: center;"><span class="edgeLabel"><p>polls</p></span></div></foreignObject></g></g><g class="edgeLabel" transform="translate(1084.375, 93)"><g class="label" data-id="L_OSH_LGI_0" transform="translate(-16.7109375, -12)"><foreignObject width="33.421875" height="24"><div xmlns="http://www.w3.org/1999/xhtml" class="labelBkg" style="display: table-cell; white-space: nowrap; line-height: 1.5; max-width: 200px; text-align: center;"><span class="edgeLabel"><p>polls</p></span></div></foreignObject></g></g><g class="edgeLabel" transform="translate(1634.7109375, 40)"><g class="label" data-id="L_OSH_LDI_0" transform="translate(-16.7109375, -12)"><foreignObject width="33.421875" height="24"><div xmlns="http://www.w3.org/1999/xhtml" class="labelBkg" style="display: table-cell; white-space: nowrap; line-height: 1.5; max-width: 200px; text-align: center;"><span class="edgeLabel"><p>polls</p></span></div></foreignObject></g></g><g class="edgeLabel" transform="translate(899.90625, 550)"><g class="label" data-id="L_Safe_NXO_0" transform="translate(-80.28125, -12)"><foreignObject width="160.5625" height="24"><div xmlns="http://www.w3.org/1999/xhtml" class="labelBkg" style="display: table-cell; white-space: nowrap; line-height: 1.5; max-width: 200px; text-align: center;"><span class="edgeLabel"><p>guards external writes</p></span></div></foreignObject></g></g><g class="edgeLabel" transform="translate(2276.09375, 157)"><g class="label" data-id="L_Safe_OSC_0" transform="translate(-58.5859375, -12)"><foreignObject width="117.171875" height="24"><div xmlns="http://www.w3.org/1999/xhtml" class="labelBkg" style="display: table-cell; white-space: nowrap; line-height: 1.5; max-width: 200px; text-align: center;"><span class="edgeLabel"><p>guards callbacks</p></span></div></foreignObject></g></g><g class="edgeLabel" transform="translate(418, 177)"><g class="label" data-id="L_Iso_OSH_0" transform="translate(-100, -24)"><foreignObject width="200" height="48"><div xmlns="http://www.w3.org/1999/xhtml" class="labelBkg" style="display: table; white-space: break-spaces; line-height: 1.5; max-width: 200px; text-align: center; width: 200px;"><span class="edgeLabel"><p>prevents failure propagation</p></span></div></foreignObject></g></g></g><g class="nodes"><g class="node default" id="my-svg-flowchart-NXR-0" data-look="classic" transform="translate(681.3125, 582)"><rect class="basic label-container" style="" x="-113.3125" y="-27" width="226.625" height="54"/><g class="label" style="" transform="translate(-83.3125, -12)"><rect/><foreignObject width="166.625" height="24"><div xmlns="http://www.w3.org/1999/xhtml" style="display: table-cell; white-space: nowrap; line-height: 1.5; max-width: 200px; text-align: center;"><span class="nodeLabel"><p>Factory A/B/C Runtime</p></span></div></foreignObject></g></g><g class="node default" id="my-svg-flowchart-NXO-1" data-look="classic" transform="translate(1084.375, 550)"><rect class="basic label-container" style="" x="-79.1875" y="-27" width="158.375" height="54"/><g class="label" style="" transform="translate(-49.1875, -12)"><rect/><foreignObject width="98.375" height="24"><div xmlns="http://www.w3.org/1999/xhtml" style="display: table-cell; white-space: nowrap; line-height: 1.5; max-width: 200px; text-align: center;"><span class="nodeLabel"><p>Nexus Outbox</p></span></div></foreignObject></g></g><g class="node default" id="my-svg-flowchart-NXRTRY-5" data-look="classic" transform="translate(1459.6484375, 582)"><rect class="basic label-container" style="" x="-93.09375" y="-27" width="186.1875" height="54"/><g class="label" style="" transform="translate(-63.09375, -12)"><rect/><foreignObject width="126.1875" height="24"><div xmlns="http://www.w3.org/1999/xhtml" style="display: table-cell; white-space: nowrap; line-height: 1.5; max-width: 200px; text-align: center;"><span class="nodeLabel"><p>Retry / last_error</p></span></div></foreignObject></g></g><g class="node default" id="my-svg-flowchart-LGI-6" data-look="classic" transform="translate(1459.6484375, 396)"><rect class="basic label-container" style="" x="-108.3515625" y="-27" width="216.703125" height="54"/><g class="label" style="" transform="translate(-78.3515625, -12)"><rect/><foreignObject width="156.703125" height="24"><div xmlns="http://www.w3.org/1999/xhtml" style="display: table-cell; white-space: nowrap; line-height: 1.5; max-width: 200px; text-align: center;"><span class="nodeLabel"><p>Nexus Event Ingestion</p></span></div></foreignObject></g></g><g class="node default" id="my-svg-flowchart-LGR-7" data-look="classic" transform="translate(1787.625, 396)"><rect class="basic label-container" style="" x="-111.203125" y="-27" width="222.40625" height="54"/><g class="label" style="" transform="translate(-81.203125, -12)"><rect/><foreignObject width="162.40625" height="24"><div xmlns="http://www.w3.org/1999/xhtml" style="display: table-cell; white-space: nowrap; line-height: 1.5; max-width: 200px; text-align: center;"><span class="nodeLabel"><p>Route + ETA Calculator</p></span></div></foreignObject></g></g><g class="node default" id="my-svg-flowchart-LGO-8" data-look="classic" transform="translate(2037.4609375, 396)"><rect class="basic label-container" style="" x="-88.6328125" y="-27" width="177.265625" height="54"/><g class="label" style="" transform="translate(-58.6328125, -12)"><rect/><foreignObject width="117.265625" height="24"><div xmlns="http://www.w3.org/1999/xhtml" style="display: table-cell; white-space: nowrap; line-height: 1.5; max-width: 200px; text-align: center;"><span class="nodeLabel"><p>Logistics Outbox</p></span></div></foreignObject></g></g><g class="node default" id="my-svg-flowchart-LDI-12" data-look="classic" transform="translate(2509.3046875, 406)"><rect class="basic label-container" style="" x="-83.2109375" y="-27" width="166.421875" height="54"/><g class="label" style="" transform="translate(-53.2109375, -12)"><rect/><foreignObject width="106.421875" height="24"><div xmlns="http://www.w3.org/1999/xhtml" style="display: table-cell; white-space: nowrap; line-height: 1.5; max-width: 200px; text-align: center;"><span class="nodeLabel"><p>Event Receiver</p></span></div></foreignObject></g></g><g class="node default" id="my-svg-flowchart-LDT-13" data-look="classic" transform="translate(2755.15625, 406)"><rect class="basic label-container" style="" x="-112.640625" y="-27" width="225.28125" height="54"/><g class="label" style="" transform="translate(-82.640625, -12)"><rect/><foreignObject width="165.28125" height="24"><div xmlns="http://www.w3.org/1999/xhtml" style="display: table-cell; white-space: nowrap; line-height: 1.5; max-width: 200px; text-align: center;"><span class="nodeLabel"><p>Transaction Normalizer</p></span></div></foreignObject></g></g><g class="node default" id="my-svg-flowchart-LDL-14" data-look="classic" transform="translate(3197.109375, 497)"><rect class="basic label-container" style="" x="-114.4609375" y="-27" width="228.921875" height="54"/><g class="label" style="" transform="translate(-84.4609375, -12)"><rect/><foreignObject width="168.921875" height="24"><div xmlns="http://www.w3.org/1999/xhtml" style="display: table-cell; white-space: nowrap; line-height: 1.5; max-width: 200px; text-align: center;"><span class="nodeLabel"><p>Ledger Entry Generator</p></span></div></foreignObject></g></g><g class="node default" id="my-svg-flowchart-LDS-15" data-look="classic" transform="translate(3687.46875, 497)"><rect class="basic label-container" style="" x="-129.3671875" y="-27" width="258.734375" height="54"/><g class="label" style="" transform="translate(-99.3671875, -12)"><rect/><foreignObject width="198.734375" height="24"><div xmlns="http://www.w3.org/1999/xhtml" style="display: table-cell; white-space: nowrap; line-height: 1.5; max-width: 200px; text-align: center;"><span class="nodeLabel"><p>Settlement + Reconciliation</p></span></div></foreignObject></g></g><g class="node default" id="my-svg-flowchart-OSR-20" data-look="classic" transform="translate(163, 70)"><rect class="basic label-container" style="" x="-98.0078125" y="-27" width="196.015625" height="54"/><g class="label" style="" transform="translate(-68.0078125, -12)"><rect/><foreignObject width="136.015625" height="24"><div xmlns="http://www.w3.org/1999/xhtml" style="display: table-cell; white-space: nowrap; line-height: 1.5; max-width: 200px; text-align: center;"><span class="nodeLabel"><p>Ecosystem Registry</p></span></div></foreignObject></g></g><g class="node default" id="my-svg-flowchart-OSH-21" data-look="classic" transform="translate(681.3125, 91)"><rect class="basic label-container" style="" x="-94.6875" y="-27" width="189.375" height="54"/><g class="label" style="" transform="translate(-64.6875, -12)"><rect/><foreignObject width="129.375" height="24"><div xmlns="http://www.w3.org/1999/xhtml" style="display: table-cell; white-space: nowrap; line-height: 1.5; max-width: 200px; text-align: center;"><span class="nodeLabel"><p>Health Aggregator</p></span></div></foreignObject></g></g><g class="node default" id="my-svg-flowchart-OSA-22" data-look="classic" transform="translate(3197.109375, 231)"><rect class="basic label-container" style="" x="-127.015625" y="-27" width="254.03125" height="54"/><g class="label" style="" transform="translate(-97.015625, -12)"><rect/><foreignObject width="194.03125" height="24"><div xmlns="http://www.w3.org/1999/xhtml" style="display: table-cell; white-space: nowrap; line-height: 1.5; max-width: 200px; text-align: center;"><span class="nodeLabel"><p>External Approval Gateway</p></span></div></foreignObject></g></g><g class="node default" id="my-svg-flowchart-OSE-23" data-look="classic" transform="translate(3687.46875, 231)"><rect class="basic label-container" style="" x="-130" y="-39" width="260" height="78"/><g class="label" style="" transform="translate(-100, -24)"><rect/><foreignObject width="200" height="48"><div xmlns="http://www.w3.org/1999/xhtml" style="display: table; white-space: break-spaces; line-height: 1.5; max-width: 200px; text-align: center; width: 200px;"><span class="nodeLabel"><p>Policy Evidence / Fallback Evidence</p></span></div></foreignObject></g></g><g class="node default" id="my-svg-flowchart-OSC-24" data-look="classic" transform="translate(3980.9375, 209)"><rect class="basic label-container" style="" x="-88.46875" y="-27" width="176.9375" height="54"/><g class="label" style="" transform="translate(-58.46875, -12)"><rect/><foreignObject width="116.9375" height="24"><div xmlns="http://www.w3.org/1999/xhtml" style="display: table-cell; white-space: nowrap; line-height: 1.5; max-width: 200px; text-align: center;"><span class="nodeLabel"><p>Callback Outbox</p></span></div></foreignObject></g></g><g class="node default" id="my-svg-flowchart-Safe-46" data-look="classic" transform="translate(681.3125, 396)"><rect class="basic label-container" style="" x="-103.3828125" y="-27" width="206.765625" height="54"/><g class="label" style="" transform="translate(-73.3828125, -12)"><rect/><foreignObject width="146.765625" height="24"><div xmlns="http://www.w3.org/1999/xhtml" style="display: table-cell; white-space: nowrap; line-height: 1.5; max-width: 200px; text-align: center;"><span class="nodeLabel"><p>Safe-mode / dry-run</p></span></div></foreignObject></g></g><g class="node default" id="my-svg-flowchart-Iso-50" data-look="classic" transform="translate(163, 383)"><rect class="basic label-container" style="" x="-130" y="-39" width="260" height="78"/><g class="label" style="" transform="translate(-100, -24)"><rect/><foreignObject width="200" height="48"><div xmlns="http://www.w3.org/1999/xhtml" style="display: table; white-space: break-spaces; line-height: 1.5; max-width: 200px; text-align: center; width: 200px;"><span class="nodeLabel"><p>DEGRADED / UNAVAILABLE isolation</p></span></div></foreignObject></g></g></g></g></g><defs><filter id="my-svg-drop-shadow" height="130%" width="130%"><feDropShadow dx="4" dy="4" stdDeviation="0" flood-opacity="0.06" flood-color="#000000"/></filter></defs><defs><filter id="my-svg-drop-shadow-small" height="150%" width="150%"><feDropShadow dx="2" dy="2" stdDeviation="0" flood-opacity="0.06" flood-color="#000000"/></filter></defs></svg>